<mxfile host="app.diagrams.net" modified="2022-03-03T09:30:07.235Z" agent="5.0 (Macintosh; Intel Mac OS X 10_15_7) AppleWebKit/537.36 (KHTML, like Gecko) Chrome/99.0.4844.51 Safari/537.36" etag="VpwtLdYyceeo1iB8trqt" version="16.6.5" type="github">
  <diagram id="9ZpSaxzcpz4ULXaL1X-T" name="第 1 页">
    <mxGraphModel dx="946" dy="614" grid="1" gridSize="10" guides="1" tooltips="1" connect="1" arrows="1" fold="1" page="1" pageScale="1" pageWidth="827" pageHeight="1169" math="0" shadow="0">
      <root>
        <mxCell id="0" />
        <mxCell id="1" parent="0" />
        <mxCell id="QuoUFKUlMbN6moup9SOk-2" value="" style="rounded=0;whiteSpace=wrap;html=1;fillStyle=auto;fillColor=none;gradientColor=none;gradientDirection=north;" vertex="1" parent="1">
          <mxGeometry x="120" y="100" width="480" height="50" as="geometry" />
        </mxCell>
        <mxCell id="QuoUFKUlMbN6moup9SOk-3" value="请求方法" style="rounded=0;whiteSpace=wrap;html=1;fillStyle=auto;fillColor=none;gradientColor=none;gradientDirection=north;" vertex="1" parent="1">
          <mxGeometry x="120" y="100" width="120" height="50" as="geometry" />
        </mxCell>
        <mxCell id="QuoUFKUlMbN6moup9SOk-4" value="空格" style="rounded=0;whiteSpace=wrap;html=1;fillStyle=auto;fillColor=none;gradientColor=none;gradientDirection=north;" vertex="1" parent="1">
          <mxGeometry x="240" y="100" width="30" height="50" as="geometry" />
        </mxCell>
        <mxCell id="QuoUFKUlMbN6moup9SOk-5" value="URL" style="rounded=0;whiteSpace=wrap;html=1;fillStyle=auto;fillColor=none;gradientColor=none;gradientDirection=north;" vertex="1" parent="1">
          <mxGeometry x="270" y="100" width="120" height="50" as="geometry" />
        </mxCell>
        <mxCell id="QuoUFKUlMbN6moup9SOk-6" value="空格" style="rounded=0;whiteSpace=wrap;html=1;fillStyle=auto;fillColor=none;gradientColor=none;gradientDirection=north;" vertex="1" parent="1">
          <mxGeometry x="390" y="100" width="30" height="50" as="geometry" />
        </mxCell>
        <mxCell id="QuoUFKUlMbN6moup9SOk-7" value="协议版本" style="rounded=0;whiteSpace=wrap;html=1;fillStyle=auto;fillColor=none;gradientColor=none;gradientDirection=north;" vertex="1" parent="1">
          <mxGeometry x="420" y="100" width="120" height="50" as="geometry" />
        </mxCell>
        <mxCell id="QuoUFKUlMbN6moup9SOk-9" value="回车" style="rounded=0;whiteSpace=wrap;html=1;fillStyle=auto;fillColor=none;gradientColor=none;gradientDirection=north;" vertex="1" parent="1">
          <mxGeometry x="540" y="100" width="30" height="50" as="geometry" />
        </mxCell>
        <mxCell id="QuoUFKUlMbN6moup9SOk-10" value="换行" style="rounded=0;whiteSpace=wrap;html=1;fillStyle=auto;fillColor=none;gradientColor=none;gradientDirection=north;" vertex="1" parent="1">
          <mxGeometry x="570" y="100" width="30" height="50" as="geometry" />
        </mxCell>
        <mxCell id="QuoUFKUlMbN6moup9SOk-11" value="" style="shape=curlyBracket;whiteSpace=wrap;html=1;rounded=1;flipH=1;fillStyle=auto;fillColor=none;gradientColor=none;gradientDirection=north;" vertex="1" parent="1">
          <mxGeometry x="610" y="100" width="20" height="50" as="geometry" />
        </mxCell>
        <mxCell id="QuoUFKUlMbN6moup9SOk-12" value="请求行" style="text;html=1;strokeColor=none;fillColor=none;align=center;verticalAlign=middle;whiteSpace=wrap;rounded=0;fillStyle=auto;" vertex="1" parent="1">
          <mxGeometry x="630" y="110" width="40" height="30" as="geometry" />
        </mxCell>
        <mxCell id="QuoUFKUlMbN6moup9SOk-14" value="头部字段名" style="rounded=0;whiteSpace=wrap;html=1;fillStyle=auto;fillColor=none;gradientColor=none;gradientDirection=north;" vertex="1" parent="1">
          <mxGeometry x="120" y="150" width="200" height="50" as="geometry" />
        </mxCell>
        <mxCell id="QuoUFKUlMbN6moup9SOk-15" value="冒号" style="rounded=0;whiteSpace=wrap;html=1;fillStyle=auto;fillColor=none;gradientColor=none;gradientDirection=north;" vertex="1" parent="1">
          <mxGeometry x="320" y="150" width="30" height="50" as="geometry" />
        </mxCell>
        <mxCell id="QuoUFKUlMbN6moup9SOk-16" value="头部字段值" style="rounded=0;whiteSpace=wrap;html=1;fillStyle=auto;fillColor=none;gradientColor=none;gradientDirection=north;" vertex="1" parent="1">
          <mxGeometry x="350" y="150" width="190" height="50" as="geometry" />
        </mxCell>
        <mxCell id="QuoUFKUlMbN6moup9SOk-17" value="回车" style="rounded=0;whiteSpace=wrap;html=1;fillStyle=auto;fillColor=none;gradientColor=none;gradientDirection=north;" vertex="1" parent="1">
          <mxGeometry x="540" y="150" width="30" height="50" as="geometry" />
        </mxCell>
        <mxCell id="QuoUFKUlMbN6moup9SOk-18" value="换行" style="rounded=0;whiteSpace=wrap;html=1;fillStyle=auto;fillColor=none;gradientColor=none;gradientDirection=north;" vertex="1" parent="1">
          <mxGeometry x="570" y="150" width="30" height="50" as="geometry" />
        </mxCell>
        <mxCell id="QuoUFKUlMbN6moup9SOk-19" value="..." style="rounded=0;whiteSpace=wrap;html=1;fillStyle=auto;fillColor=none;gradientColor=none;gradientDirection=north;" vertex="1" parent="1">
          <mxGeometry x="120" y="200" width="480" height="50" as="geometry" />
        </mxCell>
        <mxCell id="QuoUFKUlMbN6moup9SOk-20" value="头部字段名" style="rounded=0;whiteSpace=wrap;html=1;fillStyle=auto;fillColor=none;gradientColor=none;gradientDirection=north;" vertex="1" parent="1">
          <mxGeometry x="120" y="250" width="200" height="50" as="geometry" />
        </mxCell>
        <mxCell id="QuoUFKUlMbN6moup9SOk-21" value="冒号" style="rounded=0;whiteSpace=wrap;html=1;fillStyle=auto;fillColor=none;gradientColor=none;gradientDirection=north;" vertex="1" parent="1">
          <mxGeometry x="320" y="250" width="30" height="50" as="geometry" />
        </mxCell>
        <mxCell id="QuoUFKUlMbN6moup9SOk-22" value="头部字段值" style="rounded=0;whiteSpace=wrap;html=1;fillStyle=auto;fillColor=none;gradientColor=none;gradientDirection=north;" vertex="1" parent="1">
          <mxGeometry x="350" y="250" width="190" height="50" as="geometry" />
        </mxCell>
        <mxCell id="QuoUFKUlMbN6moup9SOk-23" value="回车" style="rounded=0;whiteSpace=wrap;html=1;fillStyle=auto;fillColor=none;gradientColor=none;gradientDirection=north;" vertex="1" parent="1">
          <mxGeometry x="540" y="250" width="30" height="50" as="geometry" />
        </mxCell>
        <mxCell id="QuoUFKUlMbN6moup9SOk-24" value="换行" style="rounded=0;whiteSpace=wrap;html=1;fillStyle=auto;fillColor=none;gradientColor=none;gradientDirection=north;" vertex="1" parent="1">
          <mxGeometry x="570" y="250" width="30" height="50" as="geometry" />
        </mxCell>
      </root>
    </mxGraphModel>
  </diagram>
</mxfile>
